<svg xmlns="http://www.w3.org/2000/svg" version="1.1" xmlns:xlink="http://www.w3.org/1999/xlink" xmlns:svgjs="http://svgjs.dev/svgjs" width="100%" height="100%" viewBox="0 0 1000 600"><rect width="1000" height="600" x="0" y="0" fill="#295f2d"/><g><circle r="166.66666666666666" cx="451.6733194986979" cy="473.8955778892032" fill="#ffe67c" transform="matrix(0.43858624865154894,0,0,0.4385862486515488,0,92.15593538080203)"/><path d="M316.0012491252153 545.418382642147L316.0012491252153 403.28693137404565Q360.2650439487097 398.89608475451325 382.9299343027123 398.89608475451325Q405.5948246567149 398.89608475451325 418.8435063642058 402.19556487323706Q432.0921880716966 405.4950449919608 440.67083638037843 412.4747144738765L440.67083638037843 412.4747144738765Q457.2697594391889 426.0279635769419 457.2697594391889 456.9923154603497L457.2697594391889 456.9923154603497Q457.2697594391889 470.9008931915853 451.9905912492308 482.4998348397143Q446.7368036755706 494.12415710414115 437.62516242463346 502.3982380172485Q428.5389017899941 510.69769954665367 416.30544473441824 515.3423523291649Q404.07198767884233 519.987005111676 390.16340994760674 519.987005111676L390.16340994760674 519.987005111676L374.27514414513684 519.6316764835058L374.27514414513684 545.418382642147L316.0012491252153 545.418382642147ZM396.40704155688405 435.92640393311325L396.40704155688405 435.92640393311325Q388.7420954349257 435.92640393311325 373.91981551696654 446.56088216192296L373.91981551696654 446.56088216192296L373.91981551696654 480.19019875660763L384.3512488153933 475.1140754970326Q394.7065402649264 470.0125716211597 398.8182001051822 465.3679188386485L398.8182001051822 465.3679188386485Q406.4831462271405 456.71312868107304 406.4831462271405 448.1598609886891Q406.4831462271405 439.58121268000724 400.696365711225 436.81472550353885L400.696365711225 436.81472550353885Q398.8182001051822 435.92640393311325 396.40704155688405 435.92640393311325ZM584.578930789331 403.28693137404565L584.578930789331 449.32736933839135Q578.7921502734155 447.0938751041783 572.193190035968 447.0938751041783L572.193190035968 447.0938751041783Q558.6145603166046 447.0938751041783 548.589216878944 456.9415542277539Q538.5384928249854 466.8146139676274 538.5384928249854 480.5455273847779L538.5384928249854 480.5455273847779Q538.5384928249854 489.73331048460875 542.1171597229857 494.9109562093753Q545.695826620986 500.0886019341418 551.837935765072 500.0886019341418Q558.0054255254556 500.0886019341418 565.441946100733 496.91602489690746Q572.9038472923085 493.74344785967304 587.3454179657995 483.1343502471612L587.3454179657995 483.1343502471612L587.3454179657995 541.2305809529976Q568.3607169749887 548.8955270749559 546.9902380521778 548.8955270749559Q525.6197591293669 548.8955270749559 507.5741409415776 540.6975880107423L507.5741409415776 540.6975880107423Q478.9448057575743 527.5758093847408 469.8331645066371 499.63175084078006L469.8331645066371 499.63175084078006Q466.81287116719 490.088639112779 466.7621099345942 478.5912199298415Q466.7113487019984 467.06842013060617 469.5793583436583 456.5354643669879Q472.42198736902037 446.02788921966754 477.87881987306355 437.0939122828155L477.87881987306355 437.0939122828155Q488.76710426485204 419.1498165602177 508.4370818957053 408.9975700410676Q528.1070595265587 398.8199429056196 553.5384370570296 398.89608475451325L553.5384370570296 398.89608475451325Q572.9038472923085 398.89608475451325 584.578930789331 403.28693137404565L584.578930789331 403.28693137404565Z " fill="#295f2d" transform="matrix(0.43858624865154894,0,0,0.4385862486515488,0,92.15593538080203)"/><path d="M701.6733224895321 545.3985529479994L701.6733224895321 403.286337062285Q745.9311268653689 398.8960846786727 768.5929498628586 398.8960846786727Q791.2547728603485 398.8960846786727 804.5016615554098 402.19511826173397Q817.748550250471 405.49415184479517 826.3260375664302 412.47287673204005L826.3260375664302 412.47287673204005Q842.9227142073689 426.0242916039993 842.9227142073689 456.98445292195845L842.9227142073689 456.98445292195845Q842.9227142073689 470.891148333632 837.6442604744709 482.48852023716256Q832.3911839229811 494.11126932210135 823.2807757974506 502.3842304611626Q814.195744853328 510.68256878163197 801.9639434145934 515.3265929793258Q789.7321419758587 519.9706171770197 775.8254465641852 519.9706171770197L775.8254465641852 519.9706171770197L759.939331002675 519.6153366373055L759.939331002675 545.3985529479994L701.6733224895321 545.3985529479994ZM782.0682331905934 435.92139235318297L782.0682331905934 435.92139235318297Q774.404324405328 435.92139235318297 759.5840504629607 446.5544313632034L759.5840504629607 446.5544313632034L759.5840504629607 480.1791967290197L770.0140720217158 475.10376044738706Q780.3679620362464 470.00294698434624 784.4790654243689 465.3589227866524L784.4790654243689 465.3589227866524Q792.1429742096342 456.7053039264687 792.1429742096342 448.15319379191766Q792.1429742096342 439.57570647595844 786.3569768485729 436.80959370246865L786.3569768485729 436.80959370246865Q784.4790654243689 435.92139235318297 782.0682331905934 435.92139235318297ZM930.0679551630017 468.30267582999926L930.2455954328589 466.2725013173462Q930.2455954328589 458.4055750808156 922.9369671873078 458.4055750808156L922.9369671873078 458.4055750808156Q914.5624973226139 459.21764488587684 912.0501563632057 467.0591939409993L912.0501563632057 467.0591939409993Q910.8066744742057 470.8150167894075 910.3245080274506 475.7635671639993Q909.8169643992874 480.71211753859114 908.8526315057771 486.34585181120343L908.8526315057771 486.34585181120343L928.3930611900629 481.95559942759115L930.0679551630017 468.30267582999926ZM918.2168114453895 506.8506143889993L918.2168114453895 506.8506143889993Q918.2168114453895 506.8506143889993 913.2936382522057 506.8506143889993L913.2936382522057 506.8506143889993Q910.9843147440629 506.8506143889993 908.8526315057771 506.67297411914217L908.8526315057771 506.67297411914217Q908.8526315057771 517.3060131291626 920.170854413818 518.2703460226728L920.170854413818 518.2703460226728Q923.2922477270221 518.5494950181626 926.2360007703691 518.5494950181626L926.2360007703691 518.5494950181626Q933.8237780114098 518.5494950181626 945.2942640078996 515.0728211652442Q956.7647500043895 511.59614731232585 965.8497809485119 503.72922107579524L965.8497809485119 503.72922107579524L971.3820064954914 531.4918575363258Q951.4862962714915 548.6975865310606 911.2634637395527 548.6975865310606L911.2634637395527 548.6975865310606Q888.144851476716 548.6975865310606 871.5481748357771 535.222303203326L871.5481748357771 535.222303203326Q853.5303760359811 520.5035379865913 853.5303760359811 494.4665498618156L853.5303760359811 494.4665498618156Q853.5303760359811 474.8246114518973 863.7066257806547 459.21764488587684L863.7066257806547 459.21764488587684Q873.1469372644914 444.9302917530809 889.3122018214915 437.5455319633054Q905.4520891970833 430.1353949921217 924.1804490763078 430.1353949921217L924.1804490763078 430.1353949921217Q948.46641168392 430.1353949921217 960.90123057392 440.74305682073395Q973.3614266453283 451.37609583075437 973.3106722825119 466.9830623967748Q973.2599179196957 482.5900289627952 958.3635124331038 494.72032167589725Q943.4671069465119 506.8506143889993 918.2168114453895 506.8506143889993ZM1075.8598623528999 514.7175406255299L1075.8598623528999 537.3793636230198Q1058.9079051722467 548.8752268009177 1039.9511506603487 548.8752268009177Q1020.9943961484507 548.8752268009177 1009.1178752494303 538.1153018838565Q997.2667315318181 527.3807541482033 997.2667315318181 509.18531507855033L997.2667315318181 509.18531507855033L997.2667315318181 462.7958274644279L987.0904817871447 462.7958274644279L987.0904817871447 434.50027019432576L997.2667315318181 434.50027019432576L997.2667315318181 404.529818951285L1050.6095668517773 399.07372494852984L1050.6095668517773 434.50027019432576L1075.8598623528999 434.50027019432576L1075.8598623528999 462.7958274644279L1050.6095668517773 462.7958274644279L1050.6095668517773 490.786858557632Q1050.6095668517773 503.37394053608097 1056.2686783057977 509.03305199010134Q1061.9531669412263 514.7175406255299 1075.8598623528999 514.7175406255299L1075.8598623528999 514.7175406255299ZM1204.7759439063693 403.286337062285L1204.7759439063693 449.3205441366932Q1198.989946545308 447.0873521727748 1192.3665021977774 447.0873521727748L1192.3665021977774 447.0873521727748Q1178.8150873258182 447.0873521727748 1168.7657234881856 456.93369855914216Q1158.7417368319611 466.8054221269177 1158.7417368319611 480.534477268734L1158.7417368319611 480.534477268734Q1158.7417368319611 489.7210169384891 1162.319919410512 494.8979619457544Q1165.872724807655 500.0749069530197 1172.0393798898385 500.0749069530197Q1178.180657790614 500.0749069530197 1185.6415491246141 496.90275927699935Q1193.077063277206 493.7306116009789 1207.5420566798591 483.12294977236667L1207.5420566798591 483.12294977236667L1207.5420566798591 541.2113180156524Q1188.5345478051447 548.8752268009177 1167.1669610594713 548.8752268009177Q1145.7993743137977 548.8752268009177 1127.7815755140018 540.678397206081L1127.7815755140018 540.678397206081Q1099.1561148855935 527.5583944180605 1090.045706760063 499.6181176876728L1090.045706760063 499.6181176876728Q1087.0004449910834 490.0762974782034 1086.9750678096752 478.5804343003054Q1086.9243134468588 467.0591939409993 1089.7665577645732 456.52766365661154Q1092.6341792636956 446.0215105536319 1098.0648960850426 437.0887426979585L1098.0648960850426 437.0887426979585Q1108.9517069091446 419.147075442387 1128.6190225004711 408.9962028791217Q1148.311715273206 398.8199531344482 1173.7396510441856 398.8960846786727L1173.7396510441856 398.8960846786727Q1193.077063277206 398.8960846786727 1204.7759439063693 403.286337062285L1204.7759439063693 403.286337062285ZM1305.2442051012877 466.0948610474891L1305.2442051012877 466.0948610474891Q1303.442425221308 465.1812825167952 1300.6509352664102 465.1812825167952Q1297.834068130104 465.1812825167952 1294.43352582141 466.8307993083258Q1291.0583606941245 468.5056932812646 1287.7593271110632 471.3479375989789L1287.7593271110632 471.3479375989789Q1280.7806022238183 477.4130839555299 1276.0604464818998 486.0667028157136Q1271.3402907399816 494.72032167589725 1271.3402907399816 502.0035727400401Q1271.3402907399816 509.2614466227748 1276.8725162869612 511.773787582183L1276.8725162869612 511.773787582183Q1278.8265592553898 512.6619889314687 1281.6941807545122 512.6619889314687Q1284.5364250722264 512.6619889314687 1287.6578183854303 510.9109634143054Q1290.7792116986348 509.18531507855033 1293.9006050118387 506.2415620352034L1293.9006050118387 506.2415620352034Q1300.4225406337368 500.0749069530197 1305.3203366455123 491.2944021857952Q1310.243509838696 482.48852023716256 1310.243509838696 475.5351725313258Q1310.243509838696 468.5818248254891 1305.2442051012877 466.0948610474891ZM1287.9369673809204 548.6975865310606L1287.9369673809204 548.6975865310606Q1262.407522884308 548.6975865310606 1243.9329348191652 532.5576991554688L1243.9329348191652 532.5576991554688Q1224.2148648650223 515.4281017049585 1224.2148648650223 489.41649076159115Q1224.2148648650223 463.4048798182238 1242.6894529301653 446.8589575401013Q1261.164040995308 430.3130352619788 1288.2922479206345 430.3130352619788Q1315.3950776645531 430.3130352619788 1333.869665729696 446.50367700038703Q1352.3442537948388 462.6943187387952 1352.4203853390634 489.82252566412177L1352.4203853390634 489.82252566412177Q1352.521894064696 507.2058949287136 1343.5891262090224 520.6050467122238Q1334.681735534757 533.9788213143258 1319.7853300481652 541.2874495598769Q1304.8889245615733 548.6214549868362 1287.9369673809204 548.6975865310606ZM1430.1506919922674 464.6483617072238L1430.1506919922674 464.6483617072238Q1422.9943268351653 464.6483617072238 1422.9943268351653 476.1696020665299L1422.9943268351653 476.1696020665299L1422.9943268351653 545.3985529479994L1370.0067720549205 545.3985529479994L1370.0067720549205 434.50027019432576L1399.2666622185327 434.50027019432576L1412.0313844668387 451.80750791469313Q1419.1623724425328 441.91040716550947 1431.8002087837979 436.0990326230401Q1444.4126679436552 430.3130352619788 1455.3756103119815 430.3130352619788L1455.3756103119815 430.3130352619788Q1475.5504695314714 430.3130352619788 1487.3762360676758 441.02220581622373Q1499.2020026038797 451.7313763704687 1499.2020026038797 469.7491751702646L1499.2020026038797 469.7491751702646L1499.2020026038797 545.3985529479994L1445.8337901025122 545.3985529479994L1445.8337901025122 491.87807735818296Q1445.8337901025122 464.6483617072238 1430.1506919922674 464.6483617072238ZM1580.1044569331043 464.6483617072238L1580.1044569331043 464.6483617072238Q1572.9734689574104 464.6483617072238 1572.9734689574104 476.1696020665299L1572.9734689574104 476.1696020665299L1572.9734689574104 545.3985529479994L1519.9859141771653 545.3985529479994L1519.9859141771653 434.50027019432576L1549.2458043407776 434.50027019432576L1562.0105265890838 451.80750791469313Q1569.1415145647777 441.91040716550947 1581.753973724635 436.0990326230401Q1594.3918100659002 430.3130352619788 1605.3547524342268 430.3130352619788L1605.3547524342268 430.3130352619788Q1625.5296116537165 430.3130352619788 1637.3553781899207 441.02220581622373Q1649.1557675447166 451.7313763704687 1649.1557675447166 469.7491751702646L1649.1557675447166 469.7491751702646L1649.1557675447166 545.3985529479994L1595.8129322247573 545.3985529479994L1595.8129322247573 491.87807735818296Q1595.8129322247573 464.6483617072238 1580.1044569331043 464.6483617072238ZM1742.315400494084 468.30267582999926L1742.493040763941 466.2725013173462Q1742.493040763941 458.4055750808156 1735.1590353369818 458.4055750808156L1735.1590353369818 458.4055750808156Q1726.784565472288 459.21764488587684 1724.2976016942878 467.0591939409993L1724.2976016942878 467.0591939409993Q1723.02874262388 470.8150167894075 1722.546576177125 475.7635671639993Q1722.0644097303696 480.71211753859114 1721.0746996554512 486.34585181120343L1721.0746996554512 486.34585181120343L1740.6151293397372 481.95559942759115L1742.315400494084 468.30267582999926ZM1730.4388795950638 506.8506143889993L1730.4388795950638 506.8506143889993Q1730.4388795950638 506.8506143889993 1725.541083583288 506.8506143889993L1725.541083583288 506.8506143889993Q1723.2063828937369 506.8506143889993 1721.0746996554512 506.67297411914217L1721.0746996554512 506.67297411914217Q1721.0746996554512 517.3060131291626 1732.3929225634922 518.2703460226728L1732.3929225634922 518.2703460226728Q1735.5143158766962 518.5494950181626 1738.4834461014514 518.5494950181626L1738.4834461014514 518.5494950181626Q1746.045846161084 518.5494950181626 1757.516332157574 515.0728211652442Q1768.9868181540635 511.59614731232585 1778.071849098186 503.72922107579524L1778.071849098186 503.72922107579524L1783.6040746451656 531.4918575363258Q1763.7083644211655 548.6975865310606 1723.4855318892266 548.6975865310606L1723.4855318892266 548.6975865310606Q1700.3669196263902 548.6975865310606 1683.7702429854514 535.222303203326L1683.7702429854514 535.222303203326Q1665.7524441856553 520.5035379865913 1665.7524441856553 494.4665498618156L1665.7524441856553 494.4665498618156Q1665.7524441856553 474.8246114518973 1675.928693930329 459.21764488587684L1675.928693930329 459.21764488587684Q1685.3943825955737 444.9302917530809 1701.5342699711657 437.5455319633054Q1717.6741573467573 430.1353949921217 1736.42789440739 430.1353949921217L1736.42789440739 430.1353949921217Q1760.6884798335943 430.1353949921217 1773.1232987235942 440.74305682073395Q1785.5834947950023 451.37609583075437 1785.5327404321863 466.9830623967748Q1785.48198606937 482.5900289627952 1770.585580582778 494.72032167589725Q1755.689175096186 506.8506143889993 1730.4388795950638 506.8506143889993ZM1864.2781343417166 511.59614731232585L1864.2781343417166 511.59614731232585Q1873.2870337416146 511.59614731232585 1890.3151224664923 498.8314250640197L1890.3151224664923 498.8314250640197L1890.3151224664923 542.4547999046524Q1861.0552323028799 553.5192509986116 1836.337857611329 545.5761932178565Q1811.620482919778 537.6331354371014 1801.2919700866553 517.2045044035299L1801.2919700866553 517.2045044035299Q1796.11502507939 506.8506143889993 1796.11502507939 492.94391897732584L1796.11502507939 492.94391897732584Q1796.11502507939 464.92751070271356 1815.376305768186 447.51876425671355Q1834.637586456982 430.1353949921217 1865.5216162307167 430.1353949921217L1865.5216162307167 430.1353949921217Q1878.2609612976146 430.1353949921217 1888.5387197679208 433.96734938475436L1888.5387197679208 433.96734938475436L1888.5387197679208 468.30267582999926Q1886.1278875341452 466.2725013173462 1881.7630123319411 466.2725013173462Q1877.3727599483293 466.2725013173462 1872.3734552109206 469.038614090836Q1867.399527654921 471.8047268643258 1863.2884242667985 476.42337388061156L1863.2884242667985 476.42337388061156Q1853.8227356015534 487.13254443485647 1853.8734899643698 498.4253901614891Q1853.9242443271862 509.7182358881218 1860.6999517631655 511.1393580469789L1860.6999517631655 511.1393580469789Q1862.476354461737 511.4946385866932 1864.2781343417166 511.59614731232585ZM1995.0467501379824 514.7175406255299L1995.0467501379824 537.3793636230198Q1978.0947929573292 548.8752268009177 1959.1380384454312 548.8752268009177Q1940.1812839335332 548.8752268009177 1928.3301402159211 538.1153018838565Q1916.4536193169004 527.3807541482033 1916.4536193169004 509.18531507855033L1916.4536193169004 509.18531507855033L1916.4536193169004 462.7958274644279L1906.277369572227 462.7958274644279L1906.277369572227 434.50027019432576L1916.4536193169004 434.50027019432576L1916.4536193169004 404.529818951285L1969.8218318182678 399.07372494852984L1969.8218318182678 434.50027019432576L1995.0467501379824 434.50027019432576L1995.0467501379824 462.7958274644279L1969.8218318182678 462.7958274644279L1969.8218318182678 490.786858557632Q1969.8218318182678 503.37394053608097 1975.4809432722884 509.03305199010134Q1981.1400547263086 514.7175406255299 1995.0467501379824 514.7175406255299L1995.0467501379824 514.7175406255299Z " fill="#ffe67c" transform="matrix(0.43858624865154894,0,0,0.4385862486515488,0,92.15593538080203)"/></g></svg>